<svg xmlns="http://www.w3.org/2000/svg" viewBox="0 0 1528 704" preserveAspectRatio="xMidYMid" width="1528" height="704" style="shape-rendering: auto; display: block; background: rgb(255, 255, 255);"><g data-idx="1"><linearGradient y2="0" y1="0" x2="1" x1="0" id="lg-nq4q5u6dq7r" data-idx="2">
  <stop offset="0" stop-color="#ff00ff" data-idx="3"></stop>
  <stop offset="1" stop-color="#00ffff" data-idx="4"></stop>
</linearGradient><path opacity="0.4" fill="url(#lg-nq4q5u6dq7r)" d="M 0 0 L 0 399.593 Q 152.8 491.631 305.6 449.648 T 611.2 309.28 T 916.8 338.065 T 1222.4 314.548 T 1528 163.362 L 1528 0 Z" data-idx="5">
  
</path><path opacity="0.4" fill="url(#lg-nq4q5u6dq7r)" d="M 0 0 L 0 418.091 Q 152.8 444.753 305.6 421.285 T 611.2 404.684 T 916.8 369.004 T 1222.4 255.07 T 1528 223.976 L 1528 0 Z" data-idx="7">
  
</path><path opacity="0.4" fill="url(#lg-nq4q5u6dq7r)" d="M 0 0 L 0 489.978 Q 152.8 466.258 305.6 437.846 T 611.2 347.925 T 916.8 386.29 T 1222.4 264.085 T 1528 218.921 L 1528 0 Z" data-idx="9">
  
</path><path opacity="0.4" fill="url(#lg-nq4q5u6dq7r)" d="M 0 0 L 0 439.495 Q 152.8 430.802 305.6 396.153 T 611.2 341.074 T 916.8 372.762 T 1222.4 274.246 T 1528 275.857 L 1528 0 Z" data-idx="11">
  
</path><path opacity="0.4" fill="url(#lg-nq4q5u6dq7r)" d="M 0 0 L 0 491.893 Q 152.8 475.27 305.6 437.407 T 611.2 331.458 T 916.8 302.163 T 1222.4 295.676 T 1528 265.962 L 1528 0 Z" data-idx="13">
  
</path><g data-idx="15"></g></g><text data-watermark="true" text-anchor="middle" dominant-baseline="middle" stroke-opacity="0.1" fill="black" fill-opacity="0.1" stroke="white" stroke-width="1" font-size="15.0" x="764.0" y="352.0" data-idx="16" style="opacity: 1; font-size: 15px;">LOADING.IO</text>
</svg>